# xmcd
#
# Track frame offsets:
#	150
#	21733
#	41314
#	57080
#	78803
#	101667
#	123999
#	139711
#	159191
#	178505
#	197101
#	212320
#
# Disc length: 3131 seconds
#
# Revision: 0
# Processed by: cddbd v1.5.1PL0 Copyright (c) Steve Scherf et al.
# Submitted via: dBpowerAMP V4.0
#
DISCID=940c390c
DTITLE=Dennis Taylor - In The Mood
DYEAR=2003
DGENRE=Soul
TTITLE0=At The Place
TTITLE1=Now That I Found You
TTITLE2=In The Mood
TTITLE3=Don't Wanna Give Up
TTITLE4=Want
TTITLE5=Can't Stop Lovin You
TTITLE6=Better Days
TTITLE7=Sometimes
TTITLE8=Respect
TTITLE9=Truly
TTITLE10=You Said
TTITLE11=Am I Dreaming
EXTD=
EXTT0=
EXTT1=
EXTT2=
EXTT3=
EXTT4=
EXTT5=
EXTT6=
EXTT7=
EXTT8=
EXTT9=
EXTT10=
EXTT11=
PLAYORDER=
